<svg width="32" height="30" viewBox="0 0 32 30" fill="none" xmlns="http://www.w3.org/2000/svg">
<path d="M14.1472 7.8628C14.9769 7.46407 15.9307 7.41019 16.8359 7.4021V3.12654C16.0411 3.08613 15.2437 3.10499 14.4435 3.07805C14.1768 3.06996 13.9155 3.06458 13.6487 3.06458C13.5248 3.06458 13.3955 3.06458 13.2716 3.06996C13.2312 3.06996 13.1961 3.07805 13.1557 3.07805C13.1207 3.0996 13.0938 3.11307 13.0507 3.12654C13.0237 3.91322 12.8324 4.70799 12.3448 5.35457C11.8329 6.02541 10.995 6.48341 10.1464 6.51843C9.18729 6.55346 8.10964 6.3056 7.36337 5.6617C6.58747 4.99087 6.77336 4.12606 6.75989 3.237C5.56639 3.29088 4.38907 3.48216 3.19018 3.44714C3.23059 5.1606 3.51887 6.86059 3.52425 8.57405C3.52425 8.67642 3.48923 8.75186 3.44343 8.82191C3.42996 8.97816 3.3195 9.12365 3.10666 9.12365C2.39272 9.11556 1.69495 9.11556 1.1669 9.67055C0.859771 9.99923 0.665795 10.4249 0.749312 10.8775C0.919041 11.8366 1.93472 12.0629 2.88036 12.1464C3.09858 12.009 3.44882 12.0845 3.4569 12.4186C3.46229 13.2079 3.61316 13.9838 3.65627 14.7705C3.83946 14.7921 4.04691 14.7651 4.21125 14.749C4.49144 14.7301 4.77163 14.6897 5.04643 14.6816C5.52059 14.6601 6.00015 14.6735 6.47162 14.6735C6.7114 14.6735 6.84879 14.8594 6.86227 15.0453C6.87035 15.0857 6.87574 15.1342 6.87035 15.1881C6.79491 15.7916 6.75989 16.4085 7.26099 16.8477C7.86986 17.3811 8.66463 17.7098 9.48095 17.6963C10.1949 17.6909 10.9465 17.4835 11.3938 16.8881C11.6201 16.581 11.6659 16.2927 11.6524 15.9209C11.6389 15.6057 11.6389 15.2986 11.7844 15.0184C11.8464 14.8944 11.9407 14.8325 12.0511 14.819C12.1481 14.5523 12.5037 14.5577 12.6735 14.749C12.6896 14.749 12.695 14.749 12.7085 14.749C12.7489 14.749 12.7839 14.749 12.8243 14.749C12.9348 14.749 13.0453 14.7436 13.1476 14.7436C13.5598 14.7355 13.9693 14.7705 14.3815 14.7921C15.1359 14.8244 15.8956 14.8109 16.65 14.8109C16.712 13.9488 16.5826 13.0786 16.553 12.2138C15.1143 12.2219 12.9429 11.9471 12.7085 10.301C12.5846 9.26105 13.2365 8.30194 14.1472 7.8628Z" fill="#E74C3C"/>
<path d="M19.5273 21.5273C18.9103 21.2337 18.1856 21.2471 17.5148 21.2471C17.3693 21.2471 17.2588 21.1798 17.1969 21.0828C17.0676 21.0478 16.9652 20.9454 16.9733 20.7622C17.0272 19.0272 16.7308 17.3056 16.6985 15.5733C16.685 15.5652 16.6769 15.5599 16.6634 15.5518C15.6154 15.5464 14.5728 15.5114 13.5248 15.4898C13.2581 15.4844 12.7785 15.5464 12.4283 15.4548C12.3178 15.8131 12.4633 16.2576 12.3663 16.6213C12.2559 17.0255 12.0161 17.3757 11.7144 17.6559C11.0435 18.2809 10.1194 18.4991 9.2196 18.4318C8.25511 18.3564 7.24751 17.9495 6.58745 17.2167C6.12136 16.6968 6.05401 16.0664 6.10251 15.4144C5.69839 15.409 5.28619 15.4009 4.88746 15.4359C4.49681 15.471 4.02534 15.5599 3.59967 15.5114C3.61314 17.1548 3.71552 18.8063 3.73168 20.4524C5.02486 20.5898 6.59553 21.1367 6.38269 22.7289C6.27224 23.5371 5.77921 24.181 4.98445 24.4208C4.37558 24.6067 3.75054 24.6067 3.12012 24.6067V29.1301C3.82598 29.1301 4.53184 29.1355 5.24578 29.1086C5.80615 29.087 6.37731 29.0682 6.92421 29.1921C6.99157 28.7045 7.19093 28.2518 7.58158 27.9016C8.06113 27.4705 8.72119 27.2658 9.357 27.2173C10.0844 27.1634 10.8037 27.2173 11.4126 27.6618C11.9218 28.039 12.2828 28.5671 12.5792 29.122H16.8413C16.8682 29.122 16.8978 29.122 16.9167 29.1301C16.9248 29.122 16.9248 29.1167 16.9302 29.1167C17.0056 28.9981 16.9867 28.6075 16.9787 28.4377C16.9733 28.1144 16.9436 27.7938 16.9248 27.4705C16.8682 26.6408 16.9032 25.7975 16.9113 24.9704C16.7874 24.7495 16.8628 24.4073 17.1915 24.3939C18.0832 24.3454 20.0688 24.4882 20.2547 23.2623C20.3517 22.6184 20.1658 21.8291 19.5273 21.5273Z" fill="#F1C40F"/>
<path d="M30.7617 3.82427C30.7401 3.65454 30.7213 3.48211 30.6647 3.32586C30.6377 3.25042 30.6243 3.2154 30.6054 3.18846C30.5973 3.18037 30.5973 3.17498 30.5893 3.17498C30.5488 3.14535 30.5219 3.11841 30.495 3.09147H27.7254C27.65 3.09147 27.588 3.06991 27.5341 3.04297C27.3213 3.13996 27.0115 3.04297 26.9791 2.74123C26.8552 1.67975 26.2867 0.747585 25.1013 0.755667C24.1072 0.761055 23.0242 1.45344 22.9353 2.49607C23.0242 2.54456 23.0915 2.62 23.1212 2.72237C23.2101 3.11302 22.7278 3.3528 22.5042 3.14535C22.4557 3.13996 22.4126 3.13188 22.3668 3.12649C22.1674 3.09955 21.9627 3.08608 21.7633 3.06991C21.2003 3.0295 20.6318 3.01603 20.0687 3.01064C19.4814 3.00256 18.8833 3.00256 18.296 3.0295C18.0751 3.04297 17.8488 3.05106 17.6305 3.078C17.6171 3.078 17.6036 3.08608 17.5874 3.08608V7.76037C17.5874 8.00554 17.3962 8.14294 17.2049 8.15102C17.1779 8.15641 17.1429 8.16449 17.1079 8.16449C16.2808 8.16449 15.3944 8.16449 14.6131 8.48509C13.9288 8.76797 13.3334 9.45228 13.4843 10.247C13.6001 10.8721 14.3464 11.1523 14.8879 11.2816C15.5534 11.4405 16.2323 11.4863 16.9166 11.454C17.1241 11.4459 17.2453 11.5699 17.2938 11.7288C17.3153 11.7692 17.3207 11.8177 17.3207 11.8716C17.3288 12.8711 17.4851 13.8787 17.4177 14.8809C18.5897 14.8675 19.7616 14.8244 20.9416 14.819C20.9255 14.4903 20.912 14.1616 21.0305 13.8518C21.1652 13.4881 21.4266 13.1324 21.7633 12.9196C22.3587 12.529 23.105 12.3862 23.8189 12.4266C25.1417 12.502 26.0955 13.5312 26.2167 14.7839C26.7717 14.6412 27.3698 14.6896 27.9436 14.695C28.3343 14.7031 28.733 14.6896 29.1237 14.6465C29.3715 14.6196 29.6248 14.5792 29.8699 14.5442C29.9049 14.5388 29.9534 14.5442 30.0019 14.5442C30.0558 14.4768 30.1447 14.4337 30.2417 14.4202C30.3225 13.55 30.1663 12.6664 30.1447 11.7962C29.3284 11.6722 28.4313 11.6237 27.7739 11.0957C27.2539 10.6862 26.9576 10.0477 26.9926 9.38223C27.0195 8.69254 27.3833 8.02709 27.9652 7.64183C28.8004 7.09493 29.7622 7.23233 30.6997 7.26466C30.7213 6.58035 30.7967 5.89604 30.8102 5.20904C30.8102 4.74296 30.8102 4.27688 30.7617 3.82427Z" fill="#3498DB"/>
<path d="M30.953 2.50955C30.9476 2.50955 30.9476 2.50146 30.9395 2.50146C30.8722 2.40717 30.7698 2.33173 30.6189 2.33173H27.685C27.5881 1.79022 27.4049 1.26217 27.0412 0.836498C26.5616 0.276122 25.8611 0.0201812 25.1418 0.00132216C23.7651 -0.0417837 22.3722 0.973899 22.2025 2.35059C21.599 2.29671 20.9875 2.27516 20.3786 2.26169C19.7078 2.24822 19.0342 2.24283 18.3634 2.26977C17.9862 2.28324 17.5282 2.26977 17.1564 2.39909C16.1488 2.33173 15.1412 2.35059 14.1336 2.32365C13.7996 2.31826 13.4547 2.30479 13.1206 2.33173C12.9078 2.3452 12.6734 2.46105 12.598 2.63886C12.4471 2.68736 12.3178 2.81129 12.3178 3.01065C12.3043 4.36579 11.5769 5.66975 10.1032 5.76404C9.33002 5.81253 8.48676 5.58084 7.88328 5.0932C7.29327 4.61904 7.53305 3.74884 7.52766 3.06992C7.66506 2.8517 7.53305 2.46105 7.1855 2.46913C5.73068 2.47452 4.28663 2.8032 2.83181 2.67927C2.44925 2.65233 2.27682 3.08609 2.44925 3.30431C2.4681 4.99622 2.75099 6.66926 2.78332 8.36117C2.44116 8.36117 2.11248 8.36925 1.77033 8.45816C1.40123 8.55515 1.01597 8.80839 0.735786 9.06164C0.242763 9.50617 -0.0320374 10.1312 0.00298613 10.7967C0.0353154 11.4729 0.460986 12.0279 1.01059 12.3916C1.509 12.7203 2.12595 12.8253 2.73752 12.8792C2.78332 13.6066 2.91533 14.3259 2.9288 15.0587C2.88839 15.1207 2.85875 15.1961 2.85875 15.2851C2.85875 17.1144 2.99615 18.9383 2.99615 20.7676C2.99615 20.7945 2.99615 20.8215 3.00423 20.8511C2.99615 21.0154 3.08506 21.1663 3.29789 21.1798C4.1627 21.2283 5.7657 21.3845 5.65525 22.5915C5.52593 23.9278 4.0253 23.8658 2.99076 23.8523C2.76985 23.7069 2.37381 23.8389 2.37381 24.1891V29.2594C2.37381 29.3079 2.3792 29.3483 2.39267 29.3834C2.34687 29.6016 2.48427 29.8764 2.77793 29.8764C3.51881 29.8764 4.25161 29.8899 4.99249 29.871C5.63639 29.8495 6.34763 29.7471 6.96459 29.9734C7.04002 30.0003 7.11007 30.0057 7.17203 29.9922C7.39026 30.0353 7.65698 29.8979 7.64351 29.6016C7.61656 28.4997 8.50832 28.0336 9.49436 27.9582C10.0628 27.9097 10.5909 27.9717 11.0516 28.3354C11.4207 28.629 11.6874 29.0466 11.9137 29.4723C11.9218 29.6231 11.9972 29.774 12.1481 29.836C12.2235 29.8899 12.3124 29.8979 12.4013 29.871H16.6634C16.8358 29.9869 17.081 29.9303 17.1915 29.7471C17.3019 29.7659 17.4097 29.7255 17.4986 29.6016C17.8758 29.0601 17.7384 28.2465 17.6926 27.6295C17.6306 26.7916 17.6495 25.9565 17.6575 25.1213C19.0288 25.0512 20.8312 24.895 21.009 23.2489C21.1114 22.3248 20.7908 21.4061 19.988 20.905C19.336 20.5009 18.4873 20.4793 17.733 20.4793C17.7599 18.8494 17.4986 17.2383 17.4582 15.6057C18.7621 15.5922 20.0553 15.5464 21.3593 15.5383C21.599 15.5383 21.7014 15.3524 21.6933 15.1746C21.7014 15.1396 21.7068 15.1072 21.7068 15.0641C21.7014 14.7651 21.661 14.4687 21.7068 14.167C21.7634 13.8653 22.0166 13.6201 22.2645 13.4611C22.6955 13.1809 23.2856 13.1325 23.784 13.1405C24.8401 13.1594 25.457 14.0916 25.4786 15.0587V15.1961C25.4786 15.4225 25.6348 15.5302 25.8072 15.5302C25.915 15.6003 26.0605 15.6218 26.2033 15.5464C26.5266 15.3793 26.9442 15.4009 27.2863 15.4009C27.712 15.4009 28.1296 15.4359 28.5553 15.4009C28.8004 15.3793 29.0564 15.3793 29.3015 15.3524C29.5413 15.3255 29.7945 15.25 30.0424 15.2851C30.3037 15.3255 30.5354 15.2446 30.6378 15.0507C30.7887 15.0453 30.9261 14.9483 30.9611 14.757C31.112 13.7359 30.9207 12.6933 30.8991 11.6669C31.015 11.4675 30.9611 11.1523 30.6594 11.0903C29.5494 10.8559 27.7335 10.926 27.7389 9.36877C27.7389 8.88383 28.0622 8.45277 28.4529 8.19683C29.1722 7.72536 30.2283 7.99207 31.0285 8.00555C31.2009 8.00555 31.3032 7.91664 31.3437 7.79271C31.4056 7.73075 31.4406 7.64184 31.446 7.53408C31.4541 6.65579 31.5565 5.77751 31.57 4.90192C31.5646 4.223 31.667 2.91905 30.953 2.50955ZM2.89378 12.1383C1.94814 12.0575 0.935151 11.8366 0.762728 10.8721C0.67921 10.4114 0.873186 9.98572 1.18032 9.66512C1.70836 9.11014 2.40883 9.11014 3.12008 9.11552C3.33292 9.11552 3.43529 8.97812 3.45685 8.81378C3.50534 8.75182 3.53767 8.67099 3.53767 8.56862C3.53228 6.85516 3.24401 5.15517 3.2036 3.44171C4.3944 3.46865 5.57981 3.27737 6.77331 3.22887C6.78678 4.12602 6.60088 4.98275 7.37679 5.65627C8.12306 6.30017 9.19262 6.54533 10.1598 6.513C11.0165 6.48337 11.8517 6.02537 12.3582 5.34645C12.8458 4.70795 13.0317 3.91318 13.0641 3.11842C13.0991 3.10495 13.1341 3.09148 13.1691 3.06992C13.2096 3.06453 13.2446 3.06453 13.285 3.06453C13.4089 3.05645 13.5382 3.05645 13.6622 3.05645C13.9289 3.05645 14.1902 3.06453 14.4569 3.06992C15.2517 3.09148 16.0545 3.06992 16.8493 3.11842V7.39668C15.936 7.40206 14.9904 7.45864 14.1606 7.85467C13.25 8.28573 12.598 9.25292 12.7435 10.2875C12.9698 11.9336 15.1493 12.2084 16.588 12.2003C16.623 13.0651 16.7469 13.9353 16.685 14.7974C15.9306 14.7974 15.1682 14.8109 14.4165 14.7786C14.0043 14.757 13.5921 14.722 13.1826 14.7301C13.0722 14.7301 12.9617 14.7355 12.8593 14.7355C12.8189 14.7355 12.7839 14.7355 12.7435 14.7355C12.73 14.7355 12.7219 14.7355 12.7084 14.7355C12.5387 14.5442 12.1804 14.5388 12.0861 14.8055C11.9837 14.819 11.8787 14.8809 11.8167 15.0049C11.6739 15.2904 11.6739 15.6003 11.6874 15.9074C11.7008 16.2792 11.6524 16.5675 11.426 16.8746C10.9815 17.47 10.2272 17.6774 9.51592 17.6828C8.6996 17.6909 7.89675 17.3676 7.29327 16.8342C6.80025 16.395 6.82719 15.7781 6.90262 15.1746C6.91071 15.1207 6.9107 15.0722 6.89723 15.0318C6.88376 14.8459 6.74636 14.66 6.50659 14.66C6.03242 14.66 5.55287 14.6465 5.0814 14.6681C4.79852 14.6816 4.51833 14.7166 4.24353 14.7355C4.07919 14.7489 3.87443 14.7786 3.68854 14.757C3.65621 13.9676 3.49726 13.1944 3.48918 12.405C3.46223 12.0844 3.11469 12.0009 2.89378 12.1383ZM17.5148 21.2471C18.1856 21.2471 18.9103 21.2337 19.5273 21.5273C20.1658 21.8291 20.3436 22.6184 20.2493 23.2704C20.0634 24.4962 18.0751 24.3588 17.1834 24.3993C16.8628 24.4127 16.7793 24.7576 16.9032 24.9758C16.8978 25.811 16.8628 26.6488 16.9167 27.4786C16.9382 27.7992 16.9652 28.1225 16.9732 28.4431C16.9786 28.6155 17.0002 29.0062 16.9247 29.122C16.9167 29.1301 16.9167 29.1355 16.9113 29.1355C16.8816 29.1301 16.8547 29.1301 16.8358 29.1301H12.5657C12.2693 28.5751 11.9083 28.0471 11.3991 27.6699C10.7956 27.2254 10.0763 27.1634 9.34349 27.2254C8.70499 27.2712 8.05571 27.4786 7.56807 27.9097C7.18551 28.2518 6.97806 28.7045 6.91071 29.1975C6.3611 29.0735 5.79265 29.0951 5.23227 29.1167C4.52641 29.1436 3.82055 29.1355 3.10661 29.1355V24.6121C3.73703 24.6121 4.36207 24.6121 4.97094 24.4289C5.7657 24.1891 6.25873 23.5425 6.36919 22.7343C6.58741 21.1448 5.01943 20.5952 3.71548 20.4605C3.70201 18.8143 3.59963 17.1682 3.58616 15.5167C4.01183 15.5652 4.4833 15.4763 4.87395 15.4413C5.27807 15.409 5.68488 15.4144 6.089 15.4225C6.0405 16.0717 6.10786 16.7022 6.57394 17.2248C7.22592 17.9657 8.23891 18.3698 9.20609 18.4372C10.1032 18.5072 11.03 18.2863 11.7008 17.664C12.0026 17.3811 12.2424 17.0255 12.3528 16.6267C12.4471 16.2657 12.3124 15.8131 12.4148 15.4629C12.7569 15.5599 13.2365 15.4898 13.5113 15.4979C14.5593 15.5167 15.6019 15.5599 16.6499 15.5599C16.658 15.5652 16.6715 15.5733 16.685 15.5787C16.7173 17.3137 17.0136 19.0326 16.9571 20.7676C16.9517 20.9454 17.0541 21.0559 17.1834 21.0909C17.2669 21.1798 17.3693 21.2471 17.5148 21.2471ZM30.7968 5.20366C30.7833 5.88797 30.7078 6.57228 30.6863 7.25928C29.7487 7.22425 28.7869 7.08685 27.9518 7.63645C27.3698 8.01902 27.0061 8.68446 26.9792 9.37685C26.9522 10.0423 27.2459 10.6781 27.7605 11.0903C28.4178 11.6184 29.315 11.6588 30.1313 11.7881C30.1529 12.661 30.3172 13.55 30.2283 14.4149C30.1313 14.4283 30.0424 14.4687 29.9885 14.5388C29.94 14.5307 29.8915 14.5307 29.8565 14.5388C29.6113 14.5711 29.3635 14.6142 29.1102 14.6412C28.7196 14.6897 28.3209 14.695 27.9302 14.6897C27.3564 14.6816 26.7583 14.6331 26.2033 14.7786C26.082 13.5177 25.1202 12.4939 23.8055 12.4185C23.0997 12.3781 22.3534 12.5236 21.7499 12.9142C21.4212 13.1271 21.1518 13.4746 21.0144 13.8464C20.8986 14.1616 20.9066 14.4903 20.9255 14.8109C19.7536 14.819 18.5816 14.8594 17.4043 14.8729C17.4716 13.8733 17.3154 12.8657 17.3073 11.8635C17.3073 11.8096 17.2938 11.7611 17.2804 11.7207C17.24 11.5699 17.1079 11.4405 16.9032 11.4459C16.2243 11.4729 15.54 11.4325 14.8745 11.2762C14.333 11.1442 13.5867 10.864 13.4709 10.239C13.32 9.44421 13.9154 8.76798 14.5997 8.47971C15.3756 8.15642 16.2674 8.15642 17.0945 8.15642C17.1295 8.15642 17.1645 8.15103 17.1915 8.14295C17.3827 8.12948 17.574 8.00016 17.574 7.7523V3.078C17.5875 3.078 17.6037 3.06992 17.6171 3.06992C17.8354 3.04298 18.0617 3.02951 18.2799 3.02412C18.8699 2.99449 19.468 2.99449 20.0553 3.00257C20.6184 3.01065 21.1868 3.02951 21.7499 3.06453C21.9466 3.078 22.154 3.09956 22.3534 3.11842C22.3992 3.1265 22.4423 3.13189 22.4881 3.13997C22.709 3.34472 23.1886 3.10495 23.105 2.7143C23.0862 2.61192 23.0161 2.53649 22.9218 2.48799C23.0108 1.45345 24.0938 0.755675 25.0879 0.747593C26.2733 0.742204 26.8418 1.67168 26.9657 2.73585C26.998 3.03759 27.3079 3.1265 27.5207 3.03759C27.5746 3.06453 27.6366 3.08609 27.712 3.08609H30.4815C30.5085 3.11842 30.5354 3.14536 30.5758 3.16691C30.5758 3.16691 30.5839 3.17499 30.5893 3.18038C30.6109 3.20732 30.6243 3.24235 30.6513 3.31778C30.7078 3.48212 30.7267 3.65455 30.7483 3.81889C30.8102 4.27689 30.8102 4.74297 30.7968 5.20366Z" fill="#2C3036"/>
</svg>
