<svg width="30" height="30" viewBox="0 0 30 30" fill="none" xmlns="http://www.w3.org/2000/svg">
<g clip-path="url(#clip0)">
<path d="M20.8333 3.56604L26.4311 9.16378L7.66824 27.9266L2.0705 22.3289L20.8333 3.56604Z" fill="#71DDF9"/>
<path d="M6.42157 26.6873L25.1846 7.92428L26.4273 9.16706L7.66434 27.93L6.42157 26.6873Z" fill="#23C7F7"/>
<path d="M29.045 6.55298L25.1884 10.4102L19.5898 4.81157L23.447 0.954931C24.1337 0.267627 25.2482 0.267627 25.9349 0.954931L29.045 4.06509C29.7324 4.75181 29.7324 5.86626 29.045 6.55298Z" fill="#FC8D94"/>
<path d="M29.0452 6.55314L26.4325 9.16583L25.1896 7.92288L27.8023 5.31019C28.4888 4.62364 28.4892 3.50954 27.8027 2.823L29.0448 4.06513C29.7321 4.75161 29.7322 5.86618 29.0452 6.55314Z" fill="#FA6F7C"/>
<path d="M6.70322 28.4695L1.13816 29.5493C0.730169 29.6285 0.371517 29.2699 0.450677 28.8618L1.53044 23.2968C1.59724 22.9524 1.76552 22.6359 2.01355 22.3878L2.04765 22.3537C2.73478 21.6666 3.84882 21.6666 4.53589 22.3537L7.64622 25.464C8.33335 26.1512 8.33335 27.2652 7.64622 27.9523L7.61212 27.9864C7.36415 28.2345 7.04763 28.4028 6.70322 28.4695Z" fill="#F6D190"/>
<path d="M7.64598 27.9523L7.61199 27.9863C7.36379 28.2345 7.04727 28.4027 6.70297 28.4694L1.13826 29.5495C0.730157 29.6287 0.371329 29.2699 0.450489 28.8618L0.584317 28.1728L5.46002 27.2265C5.80432 27.1598 6.12084 26.9916 6.36904 26.7434L7.64721 25.4652C8.33334 26.1521 8.33293 27.2654 7.64598 27.9523Z" fill="#ECBD83"/>
<path d="M4.08019 28.9787L1.13825 29.5493C0.730149 29.6282 0.371847 29.2699 0.450656 28.8617L1.0213 25.9198C1.79351 25.9521 2.55699 26.2636 3.14667 26.8533C3.73636 27.4431 4.04785 28.2065 4.08019 28.9787Z" fill="#6F6571"/>
<path d="M4.07994 28.9786L1.1383 29.5496C0.730198 29.6278 0.372249 29.2699 0.45053 28.8618L0.584358 28.1728L3.68637 27.5708C3.92871 28.0087 4.06008 28.4922 4.07994 28.9786Z" fill="#5D5360"/>
<path d="M23.5297 12.4836L17.5164 6.47031C17.2874 6.24126 17.2874 5.8699 17.5164 5.64091L18.5532 4.60416C18.7822 4.37511 19.1536 4.37511 19.3826 4.60416L25.3959 10.6175C25.6249 10.8465 25.6249 11.2179 25.3959 11.4468L24.3591 12.4836C24.1301 12.7126 23.7588 12.7126 23.5297 12.4836Z" fill="#FCF1F2"/>
<path d="M25.3959 11.447L24.3593 12.4837C24.1302 12.7128 23.7589 12.7128 23.5298 12.4837L22.2869 11.2407C22.516 11.4698 22.8872 11.4698 23.1163 11.2407L24.153 10.2041C24.3821 9.97499 24.3821 9.60374 24.153 9.37463L25.3959 10.6176C25.625 10.8467 25.625 11.2179 25.3959 11.447Z" fill="#F4E5E0"/>
<path d="M20.8328 3.5647L26.4305 9.16244L25.1866 10.4064L19.5888 4.80863L20.8328 3.5647Z" fill="#CDF2F9"/>
<path d="M23.9418 9.16882L25.1858 7.92481L26.4286 9.16758L25.1846 10.4116L23.9418 9.16882Z" fill="#A4E8F9"/>
<path d="M5.15601 22.9746L19.5859 8.54478L21.4517 10.4106L7.02182 24.8404L5.15601 22.9746Z" fill="#A4E8F9"/>
<path d="M29.3579 3.75414L26.2474 0.643696C25.3899 -0.213589 23.9949 -0.213589 23.1375 0.643696L19.584 4.19729C19.1825 3.89641 18.6088 3.9284 18.2437 4.29332L17.2069 5.3302C16.8421 5.69506 16.8112 6.26799 17.1118 6.66948L5.68826 18.093C5.51664 18.2646 5.51664 18.5428 5.68826 18.7145C5.85994 18.8861 6.13809 18.8861 6.30982 18.7145L17.7251 7.2993L18.9698 8.54401L5.15881 22.355L4.84744 22.0436C4.49746 21.6937 4.05789 21.4867 3.60186 21.4224L4.85963 20.1647C5.03125 19.993 5.03125 19.7148 4.85963 19.5431C4.68801 19.3715 4.4098 19.3715 4.23807 19.5431C4.23807 19.5431 1.71707 22.0635 1.70342 22.0778C1.39217 22.3891 1.1834 22.7819 1.09967 23.2138L0.0199024 28.7792C-0.0451367 29.1144 0.0602149 29.4586 0.30168 29.7C0.543027 29.9423 0.891309 30.0467 1.22248 29.9817L6.78771 28.9019C7.21961 28.8181 7.61254 28.6094 7.92385 28.2981C7.93814 28.2844 23.3321 12.8899 23.3321 12.8899C23.5085 13.0224 23.7214 13.0951 23.946 13.0951C24.22 13.0951 24.4777 12.9884 24.6715 12.7946L25.7082 11.7578C25.9021 11.564 26.0088 11.3064 26.0088 11.0324C26.0088 10.8077 25.937 10.594 25.8044 10.4175L29.3579 6.86407C30.2153 6.00666 30.2153 4.61155 29.3579 3.75414ZM19.5913 9.16551L20.8361 10.4103L7.02508 24.2212L5.78037 22.9765L19.5913 9.16551ZM7.95801 25.154L7.6467 24.8427L21.4577 11.0318L22.7024 12.2765L8.57916 26.3997C8.51494 25.9437 8.30793 25.5041 7.95801 25.154ZM1.05502 29.1189C0.931328 29.1245 0.876953 29.0704 0.882637 28.9466L1.37652 26.4013C1.93129 26.5001 2.43326 26.7617 2.83656 27.165C3.23471 27.5631 3.50102 28.0749 3.60045 28.6251L1.05502 29.1189ZM6.62043 28.039C6.62043 28.0391 6.62037 28.0391 6.62043 28.039L4.46354 28.4576C4.33082 27.7362 3.98031 27.0656 3.45818 26.5435C2.9374 26.0226 2.26475 25.6716 1.54393 25.5388L1.96258 23.3812C2.01279 23.1219 2.13812 22.8861 2.32527 22.699L2.35914 22.6652C2.61648 22.4077 2.95451 22.2791 3.29254 22.2791C3.63057 22.2791 3.96865 22.4077 4.22594 22.6652L7.33639 25.7755C7.85113 26.2903 7.85113 27.1278 7.33639 27.6425L7.30234 27.6766C7.11549 27.8634 6.87965 27.9887 6.62043 28.039ZM24.8794 10.0994C24.7092 10.2631 24.7092 10.5573 24.8794 10.721L25.0868 10.9284C25.1479 11.0107 25.148 11.0539 25.0868 11.1363L24.05 12.1731C23.9676 12.2342 23.9245 12.2343 23.8421 12.1731L17.8285 6.15953C17.7711 6.10223 17.7711 6.00895 17.8285 5.95164L18.8653 4.91483C18.9227 4.85746 19.0159 4.85746 19.0732 4.91483L23.4275 9.2691C23.5992 9.44067 23.8774 9.44067 24.0491 9.2691C24.2207 9.09742 24.2207 8.81922 24.0491 8.64754L20.2129 4.81141L20.8409 4.18346L25.8182 9.16076L24.8794 10.0994ZM28.7363 6.2425L26.4396 8.53914L21.4623 3.56184L23.759 1.2652C24.2737 0.750454 25.1112 0.750395 25.6259 1.2652L28.7363 4.37565C28.9857 4.62496 29.123 4.95649 29.123 5.30905C29.123 5.6616 28.9857 5.99319 28.7363 6.2425Z" fill="#2C3036"/>
</g>
<defs>
<clipPath id="clip0">
<rect width="30" height="30" fill="white"/>
</clipPath>
</defs>
</svg>
