<svg width="26" height="30" viewBox="0 0 26 30" fill="none" xmlns="http://www.w3.org/2000/svg">
<path d="M5.71429 17.1429C5.71429 18.7221 4.43638 20 2.85714 20C1.2779 20 0 18.7221 0 17.1429C0 15.5637 1.2779 14.2858 2.85714 14.2858C4.43638 14.2858 5.71429 15.5637 5.71429 17.1429ZM25.7143 17.1429C25.7143 18.7221 24.4364 20 22.8571 20C21.2779 20 20 18.7221 20 17.1429C20 15.5637 21.2779 14.2858 22.8571 14.2858C24.4364 14.2858 25.7143 15.5637 25.7143 17.1429Z" fill="#FFA726"/>
<path d="M2.14288 12.1429C2.14288 3.05251 23.5715 6.22495 23.5715 12.1429V19.2858C23.5715 25.2037 18.7751 30.0001 12.8572 30.0001C6.9392 30.0001 2.14288 25.2037 2.14288 19.2858V12.1429Z" fill="#FFB74D"/>
<path d="M24.9219 11.6713C24.5843 7.40234 23.0915 3.20034 17.8572 2.14286L16.4286 0H12.8572C6.26675 0 0.714294 5.34319 0.714294 12.8571V15.2846L2.85715 17.8571V13.5714L17.8572 8.57143L22.8572 12.8571V17.8571L25 15.2846V12.8571C25 12.4554 24.9693 12.0592 24.9219 11.6713Z" fill="#424242"/>
<path d="M19.2857 17.8572C19.2857 18.6468 18.6468 19.2857 17.8572 19.2857C17.0675 19.2857 16.4286 18.6468 16.4286 17.8572C16.4286 17.0675 17.0675 16.4286 17.8572 16.4286C18.6468 16.4286 19.2857 17.0675 19.2857 17.8572ZM9.28573 17.8572C9.28573 18.6468 8.64678 19.2857 7.85716 19.2857C7.06754 19.2857 6.42859 18.6468 6.42859 17.8572C6.42859 17.0675 7.06754 16.4286 7.85716 16.4286C8.64678 16.4286 9.28573 17.0675 9.28573 17.8572Z" fill="#784719"/>
<path d="M9.28571 24.2856H16.4286C16.4286 24.2856 15 26.4285 12.8571 26.4285C10.7143 26.4285 9.28571 24.2856 9.28571 24.2856Z" fill="#FB8C00"/>
</svg>
