<svg width="30" height="30" viewBox="0 0 30 30" fill="none" xmlns="http://www.w3.org/2000/svg">
<path d="M22.5 26.8125H9.23743C9.12865 26.8125 9.02432 26.7693 8.9474 26.6924C8.87048 26.6154 8.82727 26.5111 8.82727 26.4023V3.59766C8.82727 3.48888 8.87048 3.38455 8.9474 3.30763C9.02432 3.23071 9.12865 3.1875 9.23743 3.1875H22.5C22.6088 3.1875 22.7131 3.23071 22.79 3.30763C22.8669 3.38455 22.9102 3.48888 22.9102 3.59766V12.6562C22.9102 12.765 22.8669 12.8693 22.79 12.9463C22.7131 13.0232 22.6088 13.0664 22.5 13.0664C22.3912 13.0664 22.2869 13.0232 22.21 12.9463C22.1331 12.8693 22.0898 12.765 22.0898 12.6562V4.00781H9.64758V25.9922H22.0898V17.3437C22.0898 17.235 22.1331 17.1306 22.21 17.0537C22.2869 16.9768 22.3912 16.9336 22.5 16.9336C22.6088 16.9336 22.7131 16.9768 22.79 17.0537C22.8669 17.1306 22.9102 17.235 22.9102 17.3437V26.4023C22.9102 26.5111 22.8669 26.6154 22.79 26.6924C22.7131 26.7693 22.6088 26.8125 22.5 26.8125Z" fill="black"/>
<path d="M11.1232 28.4766L1.79346 24.33V5.67L11.1232 1.52344V28.4766Z" fill="#3498DB"/>
<path d="M28.4766 14.5898H15.9902L18.2222 12.3579C18.2991 12.2809 18.3423 12.1766 18.3423 12.0678C18.3423 11.959 18.2991 11.8547 18.2222 11.7778C18.1453 11.7009 18.0409 11.6577 17.9321 11.6577C17.8234 11.6577 17.719 11.7009 17.6421 11.7778L14.7105 14.7094C14.6912 14.7287 14.6739 14.75 14.6587 14.7729C14.6529 14.7818 14.6489 14.7914 14.6437 14.8005C14.6271 14.8256 14.6153 14.8536 14.6088 14.883C14.6051 14.8952 14.6004 14.9065 14.5978 14.9198C14.5873 14.9728 14.5873 15.0274 14.5978 15.0804C14.6004 15.093 14.6051 15.1038 14.6086 15.1169C14.612 15.1304 14.6162 15.1437 14.621 15.1568C14.628 15.1715 14.6358 15.1857 14.6445 15.1994C14.6496 15.2086 14.6536 15.2184 14.6597 15.2273C14.6748 15.2502 14.6921 15.2714 14.7115 15.2908L17.6421 18.2222C17.719 18.2991 17.8234 18.3423 17.9321 18.3423C18.0409 18.3423 18.1453 18.2991 18.2222 18.2222C18.2991 18.1452 18.3423 18.0409 18.3423 17.9321C18.3423 17.8233 18.2991 17.719 18.2222 17.6421L15.9902 15.4101H28.4766C28.5853 15.4101 28.6897 15.3669 28.7666 15.29C28.8435 15.2131 28.8867 15.1088 28.8867 15C28.8867 14.8912 28.8435 14.7869 28.7666 14.71C28.6897 14.633 28.5853 14.5898 28.4766 14.5898Z" fill="black"/>
<path d="M3.0647 22.7538C2.95592 22.7538 2.85159 22.7106 2.77467 22.6337C2.69775 22.5568 2.65454 22.4524 2.65454 22.3437V15.6251C2.65454 15.5163 2.69775 15.412 2.77467 15.335C2.85159 15.2581 2.95592 15.2149 3.0647 15.2149C3.17348 15.2149 3.2778 15.2581 3.35472 15.335C3.43164 15.412 3.47485 15.5163 3.47485 15.6251V22.3437C3.47485 22.4524 3.43164 22.5568 3.35472 22.6337C3.2778 22.7106 3.17348 22.7538 3.0647 22.7538Z" fill="black"/>
<path d="M11.1232 18.3691C11.0144 18.3691 10.9101 18.4124 10.8331 18.4893C10.7562 18.5662 10.713 18.6705 10.713 18.7793V20.2148C10.713 20.3236 10.7562 20.4279 10.8331 20.5049C10.9101 20.5818 11.0144 20.625 11.1232 20.625C11.2319 20.625 11.3363 20.5818 11.4132 20.5049C11.4901 20.4279 11.5333 20.3236 11.5333 20.2148V18.7793C11.5333 18.6705 11.4901 18.5662 11.4132 18.4893C11.3363 18.4124 11.2319 18.3691 11.1232 18.3691Z" fill="black"/>
<path d="M11.3466 1.17937C11.2892 1.14224 11.2236 1.11997 11.1555 1.11457C11.0874 1.10917 11.019 1.12081 10.9566 1.14844L1.62657 5.29523C1.55407 5.3275 1.49248 5.3801 1.44926 5.44666C1.40604 5.51321 1.38304 5.59087 1.38306 5.67023V10.3359C1.38306 10.4447 1.42627 10.549 1.50319 10.626C1.58011 10.7029 1.68443 10.7461 1.79321 10.7461C1.90199 10.7461 2.00632 10.7029 2.08324 10.626C2.16016 10.549 2.20337 10.4447 2.20337 10.3359V5.93672L10.713 2.15437V16.8164C10.713 16.9252 10.7563 17.0295 10.8332 17.1064C10.9101 17.1833 11.0144 17.2266 11.1232 17.2266C11.232 17.2266 11.3363 17.1833 11.4132 17.1064C11.4901 17.0295 11.5334 16.9252 11.5334 16.8164V1.52344C11.5334 1.45506 11.5163 1.38777 11.4837 1.32768C11.451 1.26759 11.4039 1.21661 11.3466 1.17937Z" fill="black"/>
<path d="M11.1232 21.6211C11.0144 21.6211 10.9101 21.6643 10.8332 21.7412C10.7563 21.8181 10.713 21.9225 10.713 22.0312V27.8456L2.20312 24.0633V12.9883C2.20312 12.8796 2.15991 12.7752 2.08299 12.6983C2.00607 12.6214 1.90175 12.5782 1.79297 12.5782C1.68419 12.5782 1.57986 12.6214 1.50294 12.6983C1.42603 12.7752 1.38281 12.8796 1.38281 12.9883V24.33C1.3828 24.4093 1.4058 24.487 1.44902 24.5536C1.49224 24.6201 1.55383 24.6727 1.62633 24.705L10.9566 28.8515C11.019 28.8793 11.0874 28.891 11.1556 28.8856C11.2237 28.8802 11.2894 28.8579 11.3468 28.8206C11.4041 28.7834 11.4512 28.7324 11.4838 28.6723C11.5163 28.6122 11.5334 28.5449 11.5334 28.4765V22.0312C11.5334 21.9225 11.4901 21.8181 11.4132 21.7412C11.3363 21.6643 11.232 21.6211 11.1232 21.6211Z" fill="black"/>
</svg>
